<?xml version="1.0" encoding="UTF-8"?> <svg xmlns="http://www.w3.org/2000/svg" xmlns:xlink="http://www.w3.org/1999/xlink" viewBox="0 0 500 245.68"><defs><style>.cls-1{fill:#013864;}.cls-2{fill:#b919ff;}.cls-3{fill:url(#Dégradé_sans_nom_16);}.cls-4{fill:url(#Dégradé_sans_nom_16-2);}.cls-5{fill:url(#Dégradé_sans_nom_16-3);}</style><linearGradient id="Dégradé_sans_nom_16" x1="227.54" y1="99.02" x2="298.36" y2="28.2" gradientUnits="userSpaceOnUse"><stop offset="0" stop-color="#028cfb"></stop><stop offset="1" stop-color="#b919ff"></stop></linearGradient><linearGradient id="Dégradé_sans_nom_16-2" x1="180.47" y1="132.75" x2="278.45" y2="34.77" xlink:href="#Dégradé_sans_nom_16"></linearGradient><linearGradient id="Dégradé_sans_nom_16-3" x1="226.43" y1="139.83" x2="325.5" y2="40.76" xlink:href="#Dégradé_sans_nom_16"></linearGradient></defs><g id="Calque_2" data-name="Calque 2"><g id="Calque_1-2" data-name="Calque 1"><path class="cls-1" d="M30.63,179.82c4.22,9,6.33,13.64,6.33,14L24.1,221.49h9.5c3.36,6.43,5.09,10,5.09,10.75H18.82c-3.17,7.39-5.19,11.62-6,12.48H.38c-.28,0-.38-.09-.38-.38q30-64.08,30.43-64.52Zm8.44,17.76q0,.43,22,46.95l-.39.19H48.19c-.48-.19-3.26-5.86-8.44-16.9-5.09-10.84-7.59-16.41-7.59-16.7Q38.49,198,38.5,197.58Z"></path><path class="cls-1" d="M64.23,244.79l-.29-.14c10.38-15.14,15.94-23.14,16.66-24.15q-15-22.38-16.66-24.44a.27.27,0,0,1,.29-.29h10l33.52,48.52c0,.21-.14.29-.36.36H97.1c-.79-.87-4.54-6.27-11.1-16.37h-.14c-6.92,10.53-10.74,16.08-11.25,16.51Z"></path><path class="cls-1" d="M154.59,194.7a23.44,23.44,0,0,1,9.6,9.41,32,32,0,0,1,0,28.9,23.57,23.57,0,0,1-9.6,9.41,30.86,30.86,0,0,1-27.61,0,23.81,23.81,0,0,1-9.6-9.46,28.82,28.82,0,0,1-3.5-14.45,28.5,28.5,0,0,1,3.5-14.4,23.81,23.81,0,0,1,9.6-9.41,30.78,30.78,0,0,1,27.61,0ZM133,202.86a14.15,14.15,0,0,0-5.71,5.9,23.18,23.18,0,0,0,0,19.54,14.17,14.17,0,0,0,5.71,5.86,16.72,16.72,0,0,0,15.56,0,14.23,14.23,0,0,0,5.71-5.86,23.18,23.18,0,0,0,0-19.54,14.21,14.21,0,0,0-5.71-5.9,16.72,16.72,0,0,0-15.56,0Z"></path><path class="cls-1" d="M222.56,197.19q5.58,6,5.57,17V245H217.19V215.34q0-7.11-3.65-11c-2.44-2.59-5.76-3.89-10-3.89a13.67,13.67,0,0,0-10.46,4.18q-3.94,4.17-3.94,12.24V245H178.21v-52.9h10.94v11.61a17.71,17.71,0,0,1,7.11-9.21,20.51,20.51,0,0,1,11.52-3.27Q217,191.24,222.56,197.19Z"></path><path class="cls-1" d="M289.68,220.72H249q.28,8.16,4.51,12.1A14.78,14.78,0,0,0,264,236.75a15.27,15.27,0,0,0,9.26-2.78,11.51,11.51,0,0,0,4.66-7.4h11.71a22.51,22.51,0,0,1-13.15,16.66,28.7,28.7,0,0,1-12,2.45,27.68,27.68,0,0,1-13.59-3.26,23.27,23.27,0,0,1-9.27-9.41,32.75,32.75,0,0,1,0-28.9,23.15,23.15,0,0,1,9.27-9.41,30.06,30.06,0,0,1,27.17,0,22.45,22.45,0,0,1,8.93,8.83A25.37,25.37,0,0,1,290.06,216,26.09,26.09,0,0,1,289.68,220.72ZM277.24,207a12.32,12.32,0,0,0-5.37-5.19,16.64,16.64,0,0,0-7.44-1.68,15.36,15.36,0,0,0-10.76,3.94q-4.32,3.93-4.7,11.61h30A16.14,16.14,0,0,0,277.24,207Z"></path><path class="cls-1" d="M348.67,230.66a25.27,25.27,0,0,1-11.08,10.68q-7.3,3.74-17.64,3.73H301.29V183.33H320q15.58,0,24,8.19t8.45,22.63A34.2,34.2,0,0,1,348.67,230.66Zm-9.28,2.19q6.83-6.71,6.83-18.7t-6.83-18.69q-6.83-6.71-19.88-6.7h-12v50.79h12Q332.56,239.55,339.39,232.85Z"></path><path class="cls-1" d="M396.18,200.4a19.06,19.06,0,0,1,7.05,10V197.25h6v47.82h-6V231.93a19,19,0,0,1-7.05,10,20.28,20.28,0,0,1-12.39,3.77,22.65,22.65,0,0,1-11.61-3,20.25,20.25,0,0,1-8-8.54,31.28,31.28,0,0,1,0-26.09,20.07,20.07,0,0,1,7.92-8.5,22.94,22.94,0,0,1,11.65-2.93A20.34,20.34,0,0,1,396.18,200.4Zm-23.73,6.79q-4.86,5.13-4.86,14t4.86,14q4.86,5.12,12.91,5.12a18,18,0,0,0,9.16-2.36,16.71,16.71,0,0,0,6.39-6.7,22.84,22.84,0,0,0,0-20.06,16.71,16.71,0,0,0-6.39-6.7,18,18,0,0,0-9.16-2.36Q377.31,202.07,372.45,207.19Z"></path><path class="cls-1" d="M444.3,239.64v5.43h-5.69q-6.92,0-10.33-3.29t-3.42-11.08V202.59h-7.27v-5.34h7.27V185.16h6.22v12.09h13.14v5.34H431.08v28.2q0,5.09,1.84,7t6.48,1.88Z"></path><path class="cls-1" d="M486.91,200.4a19.11,19.11,0,0,1,7,10V197.25h6v47.82h-6V231.93a19.09,19.09,0,0,1-7,10,20.3,20.3,0,0,1-12.39,3.77,22.63,22.63,0,0,1-11.61-3,20.34,20.34,0,0,1-8-8.54,31.38,31.38,0,0,1,0-26.09,20.15,20.15,0,0,1,7.93-8.5,22.91,22.91,0,0,1,11.65-2.93A20.36,20.36,0,0,1,486.91,200.4Zm-23.74,6.79q-4.86,5.13-4.86,14t4.86,14q4.86,5.12,12.92,5.12a17.92,17.92,0,0,0,9.15-2.36,16.67,16.67,0,0,0,6.4-6.7,22.84,22.84,0,0,0,0-20.06,16.67,16.67,0,0,0-6.4-6.7,17.92,17.92,0,0,0-9.15-2.36Q468,202.07,463.17,207.19Z"></path><path class="cls-2" d="M92.71,218.26q-.33,0-5.41-7.57c6.2-9.22,9.66-14.2,10.31-14.92h10.16v.15C98,210.48,93,217.9,92.85,218.26Z"></path><path class="cls-3" d="M273.39,3.23A83.33,83.33,0,0,0,254.13,0V125.61h19.26Z"></path><path class="cls-4" d="M166.24,83.76a83.82,83.82,0,0,0,77.57,83.63V148a64.63,64.63,0,0,1-58.17-60.32h38.9v37.89h19.27V.13A83.82,83.82,0,0,0,166.24,83.76Zm58.3-59.31v44H187.35A64.82,64.82,0,0,1,224.54,24.45Z"></path><path class="cls-5" d="M276.15,4.09v20.7a64.55,64.55,0,0,1-22,123.41v19.32a83.88,83.88,0,0,0,22-163.43Z"></path></g></g></svg> 